<svg width="50" height="50" viewBox="0 0 50 50" fill="none" xmlns="http://www.w3.org/2000/svg">
<rect width="50" height="50" fill="black"/>
<path d="M0 0.626465V49.3733H50V0.626465H0ZM2.08281 2.70928H47.9156V47.289H2.08281V2.70928ZM14.1359 28.2312L12.4844 34.4483C12.4516 34.6187 12.3781 34.6843 12.175 34.6843H9.11563C8.9125 34.6843 8.87969 34.6108 8.9125 34.3749L14.8281 13.6796C14.9266 13.3046 14.9984 13.0046 15.0312 11.9702C15.0312 11.8312 15.0969 11.7593 15.2016 11.7593H19.5719C19.7109 11.7593 19.775 11.7999 19.8078 11.9702L26.4406 34.4062C26.4734 34.5765 26.4406 34.6749 26.2703 34.6749H22.8359C22.6656 34.6749 22.5594 34.6187 22.5266 34.4796L20.8094 28.2218H14.1359V28.2312ZM19.9781 24.8452C19.3922 22.5421 17.9766 17.489 17.4641 15.0546H17.4312C16.9844 17.4874 15.8609 21.614 14.9984 24.8452H19.9781ZM31.1437 26.978C31.1844 29.8015 32.5187 31.6905 35.6844 31.6905C36.9219 31.6905 37.9797 31.528 39.0781 31.039C39.2172 30.9733 39.3219 31.014 39.3219 31.1858V33.7983C39.3219 34.0015 39.2562 34.1077 39.1109 34.214C38.0125 34.7593 36.6453 35.003 34.9281 35.003C29.4266 35.003 27.3672 30.9499 27.3672 26.4093C27.3672 21.4937 29.9062 17.4733 34.3828 17.4733C38.9156 17.4733 40.4938 21.2905 40.4938 24.3827C40.4938 25.3843 40.4203 26.2062 40.3234 26.5874C40.2828 26.7577 40.2172 26.8155 40.0469 26.8483C39.6312 26.9218 38.3953 26.9874 36.5719 26.9874H31.1437V26.978ZM35.3766 24.1124C36.4422 24.1124 36.8172 24.1124 36.9234 24.0796C36.9234 23.9405 36.9562 23.8187 36.9562 23.7218C36.9562 22.5827 36.4031 20.4983 34.2375 20.4983C32.2438 20.4983 31.3813 22.2562 31.1781 24.1124H35.3766Z" fill="#E5B64A"/>
</svg>
