<svg width="44" height="59" viewBox="0 0 44 59" fill="none" xmlns="http://www.w3.org/2000/svg">
<path d="M44 8.78908V13.9465C44 18.4916 34.1459 22.1985 22 22.1985C9.85413 22.1985 0 18.4916 0 13.9465V8.78908C0 4.24403 9.85413 0.537109 22 0.537109C34.1459 0.537109 44 4.24403 44 8.78908ZM44 20.3934V31.9977C44 36.5427 34.1459 40.2496 22 40.2496C9.85413 40.2496 0 36.5427 0 31.9977V20.3934C4.72656 24.1326 13.3776 25.8732 22 25.8732C30.6224 25.8732 39.2733 24.1326 44 20.3934ZM44 38.4445V50.0488C44 54.5939 34.1459 58.3008 22 58.3008C9.85413 58.3008 0 54.5939 0 50.0488V38.4445C4.72656 42.1837 13.3776 43.9244 22 43.9244C30.6224 43.9244 39.2733 42.1837 44 38.4445Z" fill="#E5B64A"/>
</svg>
