<svg width="34" height="50" viewBox="0 0 34 50" fill="none" xmlns="http://www.w3.org/2000/svg">
<path fill-rule="evenodd" clip-rule="evenodd" d="M9.53125 0C4.43334 0 0.333338 4.27708 0.333338 9.51667C0.333338 12.7021 1.85001 15.5312 4.18125 17.2583C2.97975 18.1585 2.00586 19.3277 1.33764 20.6721C0.669419 22.0165 0.325462 23.4987 0.333338 25C0.333338 28.1875 1.85001 31.0146 4.18125 32.7417C2.97975 33.6418 2.00586 34.811 1.33764 36.1554C0.669419 37.4998 0.325462 38.982 0.333338 40.4833C0.333338 45.7229 4.43334 50 9.53125 50C14.6271 50 18.7292 45.7229 18.7292 40.4833V32.4375C20.3403 33.7808 22.3711 34.5172 24.4688 34.5187C29.5667 34.5167 33.6667 30.2396 33.6667 25C33.6667 21.8125 32.1521 18.9854 29.8188 17.2583C31.0203 16.3582 31.9942 15.189 32.6624 13.8446C33.3306 12.5002 33.6745 11.018 33.6667 9.51667C33.6667 4.27708 29.5667 0 24.4688 0H9.53125ZM3.78959 9.51667C3.78959 6.20208 6.37709 3.54792 9.53125 3.54792H15.2708V15.4854H9.53125C6.37709 15.4854 3.78959 12.8292 3.78959 9.51667ZM24.4688 15.4833H18.7292V3.54583H24.4688C27.625 3.54583 30.2104 6.20208 30.2104 9.51667C30.2104 12.8292 27.625 15.4833 24.4688 15.4833ZM3.79167 25C3.79167 21.6875 6.37917 19.0312 9.53334 19.0312H15.2729V30.9687H9.53125C6.375 30.9687 3.78959 28.3125 3.78959 25H3.79167ZM18.7292 25C18.7292 21.6875 21.3167 19.0312 24.4708 19.0312C27.6271 19.0312 30.2125 21.6854 30.2125 25C30.2125 28.3125 27.6271 30.9687 24.4708 30.9687C21.3167 30.9687 18.7313 28.3146 18.7313 25H18.7292ZM3.79167 40.4833C3.79167 37.1708 6.37917 34.5167 9.53334 34.5167H15.2729V40.4833C15.2729 43.7979 12.6896 46.4521 9.53334 46.4521C6.37917 46.4521 3.79167 43.7979 3.79167 40.4833Z" fill="#E5B64A"/>
</svg>
