<svg width="50" height="50" viewBox="0 0 50 50" fill="none" xmlns="http://www.w3.org/2000/svg">
<path d="M24.9989 0C18.2036 0 17.3567 0.0328125 14.6973 0.145313C12.027 0.276563 10.2208 0.690625 8.62701 1.30938C6.95899 1.93909 5.44836 2.92502 4.20045 4.19844C2.92349 5.44343 1.93701 6.95489 1.31139 8.625C0.692639 10.2188 0.278577 12.025 0.147327 14.6953C0.0270142 17.3562 0.00201416 18.2016 0.00201416 24.9969C0.00201416 31.7922 0.0348267 32.6391 0.147327 35.2984C0.278577 37.9609 0.692639 39.775 1.31139 41.3688C1.94111 43.0368 2.92704 44.5474 4.20045 45.7953C5.44545 47.0723 6.95691 48.0588 8.62701 48.6844C10.2208 49.2953 12.0348 49.7172 14.6973 49.8484C17.3583 49.9688 18.2036 49.9938 24.9989 49.9938C31.7942 49.9938 32.6411 49.9609 35.3004 49.8484C37.963 49.7172 39.777 49.2938 41.3708 48.6844C43.0388 48.0547 44.5494 47.0687 45.7973 45.7953C47.0759 44.5517 48.0627 43.0398 48.6864 41.3688C49.2973 39.775 49.7192 37.9609 49.8505 35.2984C49.9708 32.6375 49.9958 31.7922 49.9958 24.9969C49.9958 18.2016 49.963 17.3547 49.8505 14.6953C49.7192 12.0328 49.2958 10.2094 48.6864 8.625C48.0567 6.95697 47.0707 5.44635 45.7973 4.19844C44.5537 2.91983 43.0418 1.93309 41.3708 1.30938C39.777 0.690625 37.963 0.276563 35.3004 0.145313C32.6395 0.025 31.7942 0 24.9989 0ZM24.9989 4.5C31.6723 4.5 32.4692 4.53281 35.1067 4.64531C37.5395 4.75938 38.8645 5.16563 39.7442 5.50938C40.8317 5.91082 41.8161 6.54977 42.6255 7.37969C43.454 8.18567 44.0905 9.16773 44.4879 10.2531C44.8317 11.1328 45.2379 12.4578 45.352 14.8906C45.4645 17.5281 45.4973 18.3266 45.4973 24.9984C45.4973 31.6703 45.4645 32.4688 45.3426 35.1063C45.2114 37.5391 44.8051 38.8641 44.463 39.7438C43.9895 40.9172 43.4614 41.7375 42.5895 42.625C41.7774 43.4497 40.7937 44.0856 39.7083 44.4875C38.8395 44.8312 37.4958 45.2375 35.0536 45.3516C32.402 45.4641 31.6208 45.4969 24.9301 45.4969C18.2395 45.4969 17.4598 45.4641 14.8051 45.3422C12.3723 45.2109 11.0301 44.8047 10.1505 44.4625C8.96295 43.9891 8.14889 43.4609 7.27701 42.5891C6.39733 41.7094 5.83795 40.8719 5.4067 39.7078C5.0567 38.8391 4.6567 37.4953 4.52701 35.0531C4.43795 32.4328 4.39576 31.6203 4.39576 24.9609C4.39576 18.3047 4.43795 17.4906 4.52701 14.8375C4.6567 12.3953 5.0567 11.0547 5.4067 10.1828C5.83795 8.99375 6.39889 8.18125 7.27701 7.30156C8.14733 6.43125 8.96295 5.86875 10.1505 5.42812C11.0301 5.08594 12.3395 4.67969 14.7817 4.55781C17.4333 4.4625 18.2145 4.42813 24.8958 4.42813L24.9989 4.5ZM24.9989 12.1672C23.3135 12.1666 21.6445 12.4981 20.0873 13.1428C18.53 13.7875 17.1151 14.7327 15.9233 15.9245C14.7316 17.1162 13.7864 18.5311 13.1417 20.0884C12.497 21.6456 12.1655 23.3146 12.1661 25C12.1655 26.6854 12.497 28.3544 13.1417 29.9116C13.7864 31.4689 14.7316 32.8838 15.9233 34.0755C17.1151 35.2673 18.53 36.2125 20.0873 36.8572C21.6445 37.5019 23.3135 37.8334 24.9989 37.8328C26.6843 37.8334 28.3533 37.5019 29.9105 36.8572C31.4677 36.2125 32.8827 35.2673 34.0744 34.0755C35.2662 32.8838 36.2114 31.4689 36.8561 29.9116C37.5008 28.3544 37.8323 26.6854 37.8317 25C37.8323 23.3146 37.5008 21.6456 36.8561 20.0884C36.2114 18.5311 35.2662 17.1162 34.0744 15.9245C32.8827 14.7327 31.4677 13.7875 29.9105 13.1428C28.3533 12.4981 26.6843 12.1666 24.9989 12.1672ZM24.9989 33.3328C20.3926 33.3328 16.6661 29.6063 16.6661 25C16.6661 20.3937 20.3926 16.6672 24.9989 16.6672C29.6051 16.6672 33.3317 20.3937 33.3317 25C33.3317 29.6063 29.6051 33.3328 24.9989 33.3328ZM41.3489 11.6547C41.3481 12.451 41.0311 13.2145 40.4677 13.7773C39.9043 14.3401 39.1406 14.6563 38.3442 14.6562C37.9504 14.6562 37.5605 14.5787 37.1968 14.428C36.833 14.2773 36.5024 14.0565 36.224 13.778C35.9456 13.4996 35.7247 13.1691 35.574 12.8053C35.4233 12.4415 35.3458 12.0516 35.3458 11.6578C35.3458 11.2641 35.4233 10.8741 35.574 10.5104C35.7247 10.1466 35.9456 9.81603 36.224 9.5376C36.5024 9.25917 36.833 9.0383 37.1968 8.88762C37.5605 8.73693 37.9504 8.65937 38.3442 8.65937C39.9958 8.65938 41.3489 10.0031 41.3489 11.6547Z" fill="white"/>
</svg>
