<svg width="50" height="50" viewBox="0 0 50 50" fill="none" xmlns="http://www.w3.org/2000/svg">
<path d="M0 0.626465V49.3718H50V0.626465H0ZM2.08281 2.71084H47.9156V47.2905H2.08281V2.71084ZM13.85 34.6358C13.6063 34.6358 13.5422 34.5296 13.5422 34.328V11.9468C13.5422 11.7671 13.6062 11.6718 13.7859 11.6718H17.0813C17.2609 11.6718 17.2937 11.7452 17.2937 11.9233V31.2093H25.8875C26.0578 31.2093 26.1062 31.2843 26.075 31.4546L25.5547 34.4093C25.5219 34.5796 25.4156 34.653 25.2437 34.653H13.85V34.6358ZM29.2734 21.1421C29.2734 20.8905 29.2734 20.2796 29.1672 19.1093C29.1672 18.939 29.2094 18.8968 29.3469 18.8327C30.6156 18.3202 33.6281 17.3937 36.9969 17.3937C37.1672 17.3937 37.2328 17.4249 37.2328 17.6046V20.6233C37.2328 20.803 37.1688 20.8358 36.9891 20.8358C35.6875 20.7718 33.7328 20.9421 33.0094 21.2499V34.3937C33.0094 34.564 32.9422 34.6296 32.7719 34.6296H29.5016C29.3313 34.6296 29.2656 34.5655 29.2656 34.3937V21.1437L29.2734 21.1421Z" fill="#E5B64A"/>
</svg>
