<svg width="78" height="48" viewBox="0 0 78 48" fill="none" xmlns="http://www.w3.org/2000/svg">
<path d="M39 2.98811C59.8894 2.98811 75.9525 13.1481 75.9525 24.3071C75.9525 35.4662 59.8772 45.6262 39 45.6262C18.1106 45.6262 2.0475 35.4662 2.0475 24.3071C2.0475 13.1481 18.1228 2.98811 39 2.98811ZM39 0.624023C17.4647 0.624023 0 11.2202 0 24.3071C0 37.3941 17.4647 47.9902 39 47.9902C60.5353 47.9902 78 37.3941 78 24.3071C78 11.2202 60.5353 0.624023 39 0.624023ZM26.5931 22.4074C25.6303 28.1066 22.23 27.5155 18.0497 27.5155L19.7194 17.5807C24.3506 17.5807 27.495 17.0038 26.5931 22.4074ZM11.8706 37.577H16.3434L17.4037 31.2728C22.4128 31.2728 25.5206 31.6949 28.3969 28.585C31.5778 25.2077 32.4066 19.199 30.1397 16.1876C28.9575 14.6116 27.0562 13.8376 24.4725 13.8376H15.8559L11.8706 37.577ZM34.5028 7.51928H38.9512L37.8909 13.8235C41.73 13.8235 45.2887 13.4999 47.0072 15.3292C48.8109 17.243 47.9456 19.6915 45.9956 31.2446H41.4862C43.3631 20.0715 43.7166 19.1427 43.0341 18.2984C42.3759 17.4822 40.8769 17.6511 37.2572 17.6511L34.9659 31.2446H30.5175L34.5028 7.51928ZM61.5469 22.4074C60.5719 28.191 57.0741 27.5155 53.0034 27.5155L54.6731 17.5807C59.3287 17.5807 62.4487 17.0038 61.5469 22.4074ZM46.8244 37.577H51.3094L52.3697 31.2728C57.6347 31.2728 60.5475 31.6245 63.3628 28.585C66.5437 25.2077 67.3725 19.199 65.1056 16.1876C63.9234 14.6116 62.0222 13.8376 59.4384 13.8376H50.8219L46.8244 37.577Z" fill="#E5B64A"/>
</svg>
