<svg width="50" height="50" viewBox="0 0 50 50" fill="none" xmlns="http://www.w3.org/2000/svg">
<path d="M0 0.626587V49.3735H50V0.626587H0ZM2.08281 2.7094H47.9156V47.2891H2.08281V2.7094ZM13.1187 12.036C13.1187 11.8969 13.1516 11.7922 13.3297 11.7922C15.1136 11.7195 16.899 11.6867 18.6844 11.6938C24.4625 11.6938 26.9688 14.8594 26.9688 18.9125C26.9688 24.2016 23.1437 26.4735 18.4312 26.4735C17.6422 26.4735 17.3656 26.4407 16.8125 26.4407V34.4485C16.8125 34.6188 16.7469 34.6844 16.5766 34.6844H13.3625C13.1828 34.6844 13.1187 34.6188 13.1187 34.4485V12.036ZM16.8125 23.1031C17.3016 23.136 17.675 23.136 18.5047 23.136C20.9375 23.136 23.225 22.2813 23.225 18.9781C23.225 16.3328 21.5969 14.9906 18.8062 14.9906C17.9844 14.9906 17.1953 15.0313 16.8125 15.0641V23.1031ZM30.1516 21.2156C30.1516 20.9719 30.1516 20.3531 30.0453 19.1891C30.0453 19.0188 30.0703 18.9781 30.2078 18.9125C32.6393 17.977 35.2199 17.489 37.825 17.4719C37.9953 17.4719 38.0688 17.5047 38.0688 17.675V20.7031C38.0688 20.8735 38.0125 20.9063 37.8406 20.9063C36.5136 20.8234 35.1821 20.9639 33.9016 21.3219V34.4485C33.9016 34.6188 33.8281 34.6844 33.6578 34.6844H30.3859C30.2156 34.6844 30.15 34.6188 30.15 34.4485L30.1516 21.2156Z" fill="#E5B64A"/>
</svg>
