<svg width="54" height="37" viewBox="0 0 54 37" fill="none" xmlns="http://www.w3.org/2000/svg">
<path d="M52.8693 5.65115C52.5636 4.56056 51.968 3.5732 51.146 2.79403C50.3008 1.9909 49.2648 1.4164 48.1359 1.12476C43.911 0.0111558 26.9843 0.011156 26.9843 0.011156C19.9277 -0.0691298 12.8729 0.283987 5.8596 1.06851C4.73068 1.3817 3.69666 1.96904 2.84951 2.77828C2.01712 3.57918 1.4142 4.56679 1.09924 5.6489C0.342652 9.72477 -0.0249509 13.8633 0.00138848 18.0087C-0.0256079 22.1504 0.341093 26.2876 1.09924 30.3686C1.40745 31.4462 2.00812 32.4293 2.84276 33.2234C3.67739 34.0176 4.71675 34.5913 5.8596 34.895C10.1408 36.0063 26.9843 36.0063 26.9843 36.0063C34.0498 36.0867 41.1136 35.7336 48.1359 34.949C49.2648 34.6573 50.3008 34.0828 51.146 33.2797C51.9784 32.4855 52.5701 31.4979 52.867 30.4226C53.6434 26.3483 54.0209 22.208 53.9941 18.0605C54.0525 13.8954 53.6755 9.73562 52.8693 5.6489V5.65115ZM21.603 25.7117V10.308L35.6861 18.011L21.603 25.7117Z" fill="white"/>
</svg>
