<svg width="77" height="71" viewBox="0 0 77 71" fill="none" xmlns="http://www.w3.org/2000/svg">
<path d="M62.971 3.93325C63.0182 5.09848 63.0182 6.46436 63.115 7.73112L66.8364 8.57966L64.8046 16.1246L55.684 49.9307L53.0882 40.9594C51.4765 35.4597 49.1545 32.404 45.7988 30.8592H45.7752L45.4944 30.7383C45.3929 30.6924 45.2915 30.6513 45.1876 30.6102C45.1239 30.586 45.0602 30.5594 44.9941 30.5377L44.9422 30.5183C44.8455 30.4821 44.7464 30.4458 44.6472 30.4144C44.5922 30.3934 44.5356 30.3741 44.4774 30.3563H44.4372C44.3995 30.3418 44.3594 30.3322 44.3216 30.3201L44.2555 30.2983L44.0196 30.2282H43.9889L43.9252 30.2089L43.7788 30.1702L43.7269 30.1557H43.701L43.6042 30.1291L43.5193 30.1098L43.2833 30.0566H43.2597H43.2196L43.55 29.9961C43.5625 29.995 43.5751 29.995 43.5877 29.9961L43.734 29.9671H43.7741C43.937 29.9357 44.0951 29.9019 44.2461 29.8656L44.416 29.8269L44.4726 29.8148C44.567 29.7931 44.659 29.7737 44.7487 29.7471L44.8313 29.7278C44.8399 29.7289 44.8487 29.7289 44.8573 29.7278L45.1121 29.6649L45.3717 29.5948C53.4115 27.3998 57.5081 21.6171 57.5081 15.3317C57.5081 15.2592 57.5081 15.1891 57.5081 15.1165C57.4998 13.9148 57.3549 12.7181 57.0763 11.5507C55.2899 4.20159 48.0548 0 36.8458 0H13.2998V3.4836L21.231 4.42158C21.3797 11.9424 21.3797 19.5043 21.3797 27.0081V31.3596C21.3797 38.3365 21.3797 45.2601 21.2664 52.0581L11.8037 16.0376L16.6861 14.9957V11.4492H0V14.9328L3.93141 15.8176L14.8454 54.6352L15.8767 58.3049L19.2984 70.46H22.6162L26.3565 58.2976L27.7724 53.7044L29.1127 49.3529L34.663 31.3209C36.0671 31.3321 37.4663 31.4941 38.8374 31.8044C42.1742 32.6409 44.029 34.732 45.2089 39.5839L48.6943 53.7842C49.7161 57.7924 51.998 59.1848 57.2839 59.1848C57.4963 59.1848 57.704 59.1848 57.9093 59.1848L59.1836 54.333H59.0868L69.1136 16.0303L70.9778 8.89151L72.1577 8.71745L77 7.77463V4.05654L62.971 3.93325ZM37.3673 27.32C36.8843 27.3538 36.3856 27.3708 35.8712 27.3708H31.8053H29.0231V24.8977C29.0231 21.5277 29.0231 18.3342 29.0467 15.2277C29.0467 13.969 29.0553 12.72 29.0726 11.4806C29.0939 8.94711 29.1293 6.44743 29.1812 3.93566H36.7632C43.9393 3.93566 47.8117 6.57556 49.0176 11.4806C49.29 12.6373 49.4294 13.8227 49.4329 15.0126V15.2543C49.4329 19.6952 47.6819 23.3432 44.0951 25.4343C42.3181 26.4956 40.0763 27.1435 37.3673 27.32Z" fill="white"/>
</svg>
